<?xml version="1.0" standalone="no"?>
<!DOCTYPE svg PUBLIC "-//W3C//DTD SVG 20010904//EN"
 "http://www.w3.org/TR/2001/REC-SVG-20010904/DTD/svg10.dtd">
<svg version="1.0" xmlns="http://www.w3.org/2000/svg"
 width="180.000000pt" height="180.000000pt" viewBox="0 0 180.000000 180.000000"
 preserveAspectRatio="xMidYMid meet">

<symbol id="port" viewBox="0 0 180.000000 180.000000">
<g transform="translate(0.000000,180.000000) scale(0.100000,-0.100000)"
 stroke="none">
<path d="M1672 1680 c-12 -20 -42 -28 -42 -11 0 12 -42 1 -58 -16 -7 -7 -21
-13 -30 -13 -10 0 -34 -11 -54 -25 -21 -14 -51 -25 -70 -25 -19 0 -39 -5 -45
-11 -8 -8 -18 -6 -37 6 -20 13 -29 15 -39 6 -8 -6 -17 -8 -20 -4 -4 3 -13 0
-21 -6 -8 -7 -20 -10 -25 -7 -5 4 -13 2 -16 -4 -4 -6 -14 -8 -23 -6 -10 4 -30
-6 -50 -25 -25 -24 -42 -30 -75 -31 -23 0 -50 -4 -59 -9 -20 -11 -48 -2 -48
16 0 8 -8 11 -19 8 -12 -3 -28 4 -41 17 -21 21 -22 21 -35 3 -8 -10 -15 -23
-15 -29 0 -24 -83 -9 -101 18 -3 5 -17 4 -33 -2 -21 -8 -32 -6 -51 6 -14 9
-25 12 -25 6 0 -13 -42 -3 -52 12 -6 8 -8 8 -8 0 0 -14 -48 -6 -74 12 -13 9
-25 10 -36 4 -10 -6 -30 -6 -48 -1 -17 5 -33 7 -36 3 -3 -3 -6 0 -6 6 0 7 -15
9 -42 6 -50 -6 -52 -6 -96 2 -19 4 -46 18 -60 31 -31 29 -63 43 -109 49 -25 3
-33 0 -38 -17 -8 -24 -8 -24 27 -33 15 -3 30 -2 33 4 4 6 24 -7 48 -29 23 -22
58 -47 77 -56 21 -10 44 -31 55 -51 15 -28 23 -34 41 -30 13 4 26 1 29 -4 4
-6 14 -8 23 -6 10 3 37 2 62 -4 42 -9 43 -9 8 -7 -21 2 -38 -1 -38 -5 0 -4 7
-8 16 -8 8 0 12 -4 9 -10 -3 -5 -14 -10 -25 -10 -20 0 -37 -33 -20 -38 21 -7
58 -47 65 -69 6 -21 3 -23 -28 -23 -47 0 -90 -17 -105 -40 -17 -28 1 -34 59
-21 69 16 89 14 89 -9 0 -11 4 -20 9 -20 14 0 22 -30 12 -49 -7 -11 -4 -30 7
-57 10 -21 17 -59 17 -84 0 -39 -3 -45 -20 -42 -17 2 -20 -3 -19 -25 1 -16 3
-29 3 -31 1 -1 11 3 24 9 l22 12 -23 -25 c-21 -23 -22 -27 -8 -41 14 -13 14
-16 -1 -21 -14 -6 -14 -9 3 -27 18 -20 18 -21 -1 -35 -14 -11 -16 -17 -8 -22
8 -5 10 -25 8 -56 -3 -41 -1 -49 16 -53 30 -8 22 -43 -14 -56 -9 -3 -17 -13
-17 -21 0 -8 8 -20 17 -26 13 -8 14 -13 6 -16 -7 -3 -13 -12 -13 -20 0 -12 4
-13 23 -3 20 11 21 11 8 -4 -7 -10 -10 -17 -6 -17 4 0 2 -6 -4 -13 -6 -8 -8
-16 -6 -19 14 -13 13 -53 -2 -81 -10 -20 -12 -32 -5 -35 6 -2 8 -10 5 -18 -3
-8 1 -14 11 -14 9 0 16 8 16 20 0 11 5 20 10 20 6 0 10 10 10 23 0 12 7 32 15
44 10 14 12 24 5 28 -14 9 -12 25 3 25 18 0 37 95 23 111 -8 9 -8 10 2 5 14
-8 13 -14 16 129 1 63 7 119 14 132 16 30 16 77 -1 67 -7 -5 -6 0 3 11 11 13
15 45 16 116 0 86 -2 97 -15 86 -12 -10 -13 -9 -6 8 5 11 10 38 11 60 1 38 3
40 35 41 126 5 139 8 139 34 0 25 -1 25 -79 25 -71 0 -82 3 -102 24 l-23 24
23 18 c13 11 18 19 11 19 -7 0 -6 5 4 15 22 22 79 19 94 -5 14 -23 39 -26 61
-6 11 10 33 12 74 9 47 -5 57 -9 57 -24 0 -14 7 -19 26 -19 20 0 25 5 24 23
-4 40 0 45 31 52 31 7 41 0 99 -72 15 -18 37 -5 48 27 8 23 19 30 56 38 51 11
96 5 96 -12 0 -6 -9 -28 -20 -49 -11 -20 -19 -40 -19 -44 4 -24 -8 -28 -92
-30 -50 -1 -94 -4 -97 -8 -3 -3 -1 -14 4 -23 9 -13 25 -17 77 -16 52 1 64 -1
60 -12 -3 -8 0 -14 5 -14 6 0 14 9 17 20 3 11 13 20 22 20 13 0 14 -9 9 -52
-4 -36 -3 -48 3 -38 6 8 13 12 16 8 4 -4 -2 -19 -13 -35 -33 -47 -37 -73 -12
-80 15 -4 20 -11 17 -25 -4 -14 -1 -18 8 -14 7 2 16 -2 19 -10 3 -9 1 -12 -4
-9 -13 8 -13 -2 2 -28 17 -32 18 -45 2 -58 -8 -6 -14 -21 -14 -32 0 -16 -3
-18 -11 -10 -6 6 -11 33 -11 58 1 40 -1 45 -13 35 -12 -10 -14 -27 -9 -74 3
-33 7 -81 9 -106 1 -25 10 -72 19 -106 8 -33 18 -91 20 -128 4 -62 16 -107 16
-58 0 34 18 26 25 -11 17 -83 39 -147 50 -147 7 0 32 -34 54 -75 23 -41 43
-75 45 -75 2 0 1 11 -1 24 -4 18 0 25 13 28 17 3 17 5 -3 23 -28 26 -66 141
-59 177 3 15 1 30 -3 33 -5 2 -12 21 -15 40 -3 19 -9 51 -12 70 -4 23 -2 35 5
35 6 0 11 -9 11 -21 0 -13 4 -18 13 -13 8 5 8 2 -2 -9 -11 -14 -11 -21 3 -42
22 -33 38 -33 26 1 -6 14 -10 37 -10 52 0 26 -33 128 -45 140 -3 3 -5 -12 -6
-34 l-1 -39 -9 38 c-7 29 -5 43 6 61 13 20 14 27 1 50 -9 18 -16 23 -19 14 -3
-7 -6 -3 -6 10 -1 13 3 20 9 17 14 -9 12 9 -2 23 -10 10 -10 15 -1 20 12 7 12
97 0 109 -4 3 -2 14 4 25 7 14 7 29 -1 51 -8 25 -8 34 3 42 8 5 12 15 10 22
-2 6 1 14 6 18 6 3 11 26 11 50 0 24 5 47 12 51 12 7 77 12 183 13 89 1 34 20
-63 22 -82 1 -92 4 -86 18 3 9 7 23 8 31 0 8 5 18 9 21 4 3 20 41 35 85 18 49
34 79 43 79 20 0 79 37 79 50 0 5 14 21 31 35 27 23 30 30 27 73 -3 43 -4 46
-16 27z m-522 -270 c0 -13 -11 -13 -30 0 -12 8 -11 10 8 10 12 0 22 -4 22 -10z
m306 -80 c-1 -35 -16 -41 -16 -7 0 20 7 37 15 37 1 0 2 -13 1 -30z m-926 -476
c0 -8 -5 -12 -10 -9 -6 4 -8 11 -5 16 9 14 15 11 15 -7z m0 -498 c0 -2 -7 -7
-16 -10 -8 -3 -12 -2 -9 4 6 10 25 14 25 6z"/>
<path d="M1460 145 c0 -21 17 -45 32 -45 14 0 9 17 -12 41 -19 23 -19 23 -20
4z"/>
</g>
</symbol>
</svg>
