<?xml version="1.0" standalone="no"?>
<!DOCTYPE svg PUBLIC "-//W3C//DTD SVG 20010904//EN"
 "http://www.w3.org/TR/2001/REC-SVG-20010904/DTD/svg10.dtd">
<svg version="1.0" xmlns="http://www.w3.org/2000/svg"
 width="140.000000pt" height="140.000000pt" viewBox="0 0 140.000000 140.000000"
 preserveAspectRatio="xMidYMid meet">

<symbol id="sol" viewBox="0 0 140.000000 140.000000">
<g transform="translate(0.000000,140.000000) scale(0.100000,-0.100000)"
 stroke="none">
<path d="M578 1159 c-20 -3 -44 -11 -52 -18 -8 -7 -27 -14 -43 -17 -15 -2 -37
-15 -48 -27 -12 -12 -38 -31 -58 -41 -20 -11 -37 -23 -37 -27 0 -4 -12 -21
-26 -36 -35 -38 -66 -98 -77 -153 -15 -78 -19 -162 -8 -184 6 -11 9 -37 8 -56
-2 -21 4 -44 15 -59 10 -13 18 -32 18 -42 0 -11 5 -19 10 -19 6 0 10 -7 10
-15 0 -9 7 -18 15 -21 8 -4 15 -12 15 -18 0 -7 18 -25 40 -42 39 -29 49 -44
29 -44 -5 0 -7 -5 -4 -11 4 -5 12 -8 18 -6 18 6 89 -33 120 -66 27 -28 31 -29
90 -23 37 4 57 3 49 -2 -11 -7 -10 -10 3 -16 23 -8 22 -8 42 13 10 10 38 21
63 24 49 6 147 47 192 78 27 20 39 14 17 -8 -8 -8 -8 -13 1 -18 6 -4 26 5 45
20 37 27 47 65 18 65 -14 0 -13 3 5 23 12 13 22 28 22 35 0 6 8 26 18 44 37
68 53 163 32 184 -6 6 -15 26 -20 45 -8 30 -8 32 4 16 12 -16 14 -14 18 25 3
24 2 47 -1 53 -3 5 -4 25 -2 43 2 26 -2 35 -18 39 -13 3 -26 22 -38 56 -18 51
-74 117 -100 117 -7 0 -13 3 -13 8 0 8 -10 14 -86 50 -26 12 -52 21 -58 20 -6
-1 -33 3 -61 10 -49 12 -95 12 -167 1z m-270 -229 c-7 -10 -14 -18 -15 -16 -6
6 9 36 18 36 5 0 4 -9 -3 -20z m-61 -202 c-3 -8 -6 -5 -6 6 -1 11 2 17 5 13 3
-3 4 -12 1 -19z"/>
<path d="M1047 1076 c-3 -8 9 -33 26 -55 l32 -42 7 28 c13 45 -49 111 -65 69z"/>
<path d="M165 959 c-23 -44 -12 -60 13 -19 24 39 27 50 12 50 -5 0 -17 -14
-25 -31z"/>
<path d="M150 569 c0 -25 17 -59 30 -59 13 0 13 24 -2 55 -14 30 -28 33 -28 4z"/>
<path d="M890 270 c-9 -6 -10 -10 -3 -10 6 0 15 5 18 10 8 12 4 12 -15 0z"/>
</g>
</symbol>
</svg>
